<svg width="64" height="64" viewBox="0 0 64 64" fill="none" xmlns="http://www.w3.org/2000/svg">
<path d="M54.173 52.7279C53.691 52.9929 53.176 53.1179 52.645 53.1179C51.349 53.1179 50.039 52.3529 49.319 51.0419L42.809 39.1409H25.994C25.901 39.1409 25.808 39.1409 25.714 39.1259H25.573C22.981 39.2209 20.765 37.2379 20.593 34.6319L19.485 17.7239C19.314 15.0699 21.327 12.7749 23.983 12.6029L24.98 12.5419C27.636 12.3679 29.929 14.3679 30.103 17.0209L30.398 21.6889H40.657C41.969 21.6889 43.029 22.8749 43.029 24.3259C43.029 25.7789 41.968 26.9649 40.657 26.9649H30.74L30.99 30.7279H43.264C43.731 30.7279 44.169 30.8059 44.59 30.9459C45.666 31.1339 46.682 31.8369 47.292 32.9449L55.378 47.7299C56.374 49.5739 55.844 51.8069 54.173 52.7279Z" fill="#344051"/>
<path d="M24.5471 11.221C27.6366 11.221 30.1411 8.71644 30.1411 5.62696C30.1411 2.53748 27.6366 0.032959 24.5471 0.032959C21.4576 0.032959 18.9531 2.53748 18.9531 5.62696C18.9531 8.71644 21.4576 11.221 24.5471 11.221Z" fill="#344051"/>
<path d="M40.0761 43.046H23.2621C23.1671 43.046 23.0741 43.046 22.9811 43.031H22.8411C20.2491 43.122 18.0321 41.14 17.8591 38.533L17.1401 27.558C11.7151 31.092 8.12207 37.201 8.12207 44.159C8.12207 55.099 16.9911 63.967 27.9311 63.967C35.6471 63.967 42.3141 59.548 45.5861 53.112L40.0761 43.046Z" fill="#344051"/>
<rect x="32" width="32" height="20" rx="4" fill="#F64C4C"/>
<path d="M37.4038 16L34.2823 5.09091H36.8018L38.6076 12.6708H38.6982L40.6903 5.09091H42.8477L44.8345 12.6868H44.9304L46.7362 5.09091H49.2557L46.1342 16H43.8864L41.8089 8.86754H41.7237L39.6516 16H37.4038ZM59.5003 8.91016H57.1672C57.1246 8.60831 57.0376 8.3402 56.9062 8.10582C56.7748 7.8679 56.6061 7.66548 56.4001 7.49858C56.1942 7.33168 55.9562 7.20383 55.6863 7.11506C55.42 7.02628 55.1306 6.98189 54.8181 6.98189C54.2535 6.98189 53.7616 7.12216 53.3426 7.4027C52.9236 7.67969 52.5986 8.08452 52.3678 8.61719C52.137 9.14631 52.0216 9.78906 52.0216 10.5455C52.0216 11.3232 52.137 11.9766 52.3678 12.5057C52.6022 13.0348 52.9289 13.4343 53.3479 13.7042C53.767 13.9741 54.2517 14.109 54.8021 14.109C55.1111 14.109 55.3969 14.0682 55.6597 13.9865C55.926 13.9048 56.1622 13.7859 56.3682 13.6296C56.5741 13.4698 56.7446 13.2763 56.8795 13.049C57.018 12.8217 57.1139 12.5625 57.1672 12.2713L59.5003 12.282C59.4399 12.7827 59.289 13.2656 59.0475 13.7308C58.8096 14.1925 58.4882 14.6062 58.0834 14.9719C57.6821 15.3342 57.2027 15.6218 56.6452 15.8349C56.0912 16.0444 55.4644 16.1491 54.7648 16.1491C53.7918 16.1491 52.9218 15.929 52.1547 15.4886C51.3912 15.0483 50.7876 14.4109 50.3437 13.5763C49.9033 12.7418 49.6831 11.7315 49.6831 10.5455C49.6831 9.35582 49.9069 8.34375 50.3543 7.50923C50.8018 6.67472 51.409 6.03906 52.176 5.60227C52.9431 5.16193 53.806 4.94176 54.7648 4.94176C55.3969 4.94176 55.9829 5.03054 56.5226 5.2081C57.066 5.38565 57.5471 5.64489 57.9662 5.98579C58.3852 6.32315 58.7261 6.73686 58.9889 7.22692C59.2552 7.71697 59.4257 8.27805 59.5003 8.91016Z" fill="white"/>
</svg>
