<svg width="196" height="29" viewBox="0 0 196 29" fill="none" xmlns="http://www.w3.org/2000/svg">
<path d="M36.98 21.336H43.928V24H33.752V6.648H36.98V21.336ZM48.6944 11.688V19.512C48.6944 20.264 48.8664 20.848 49.2104 21.264C49.5624 21.672 50.0864 21.876 50.7824 21.876C51.2944 21.876 51.7744 21.764 52.2224 21.54C52.6704 21.308 53.0944 20.992 53.4944 20.592V11.688H56.4584V24H54.6464C54.2624 24 54.0104 23.82 53.8904 23.46L53.6864 22.476C53.4304 22.732 53.1664 22.968 52.8944 23.184C52.6224 23.392 52.3304 23.572 52.0184 23.724C51.7144 23.868 51.3824 23.98 51.0224 24.06C50.6704 24.148 50.2904 24.192 49.8824 24.192C49.2104 24.192 48.6144 24.08 48.0944 23.856C47.5824 23.624 47.1504 23.3 46.7984 22.884C46.4464 22.468 46.1784 21.976 45.9944 21.408C45.8184 20.832 45.7304 20.2 45.7304 19.512V11.688H48.6944ZM63.8831 11.472C64.4111 11.472 64.9071 11.528 65.3711 11.64C65.8351 11.744 66.2591 11.9 66.6431 12.108H70.1831V13.212C70.1831 13.396 70.1351 13.54 70.0391 13.644C69.9431 13.748 69.7791 13.82 69.5471 13.86L68.4431 14.064C68.5231 14.272 68.5831 14.492 68.6231 14.724C68.6711 14.956 68.6951 15.2 68.6951 15.456C68.6951 16.064 68.5711 16.616 68.3231 17.112C68.0831 17.6 67.7471 18.016 67.3151 18.36C66.8911 18.704 66.3831 18.972 65.7911 19.164C65.2071 19.348 64.5711 19.44 63.8831 19.44C63.4191 19.44 62.9671 19.396 62.5271 19.308C62.1431 19.54 61.9511 19.8 61.9511 20.088C61.9511 20.336 62.0631 20.52 62.2871 20.64C62.5191 20.752 62.8191 20.832 63.1871 20.88C63.5631 20.928 63.9871 20.96 64.4591 20.976C64.9311 20.984 65.4151 21.008 65.9111 21.048C66.4071 21.088 66.8911 21.16 67.3631 21.264C67.8351 21.36 68.2551 21.516 68.6231 21.732C68.9991 21.948 69.2991 22.244 69.5231 22.62C69.7551 22.988 69.8711 23.464 69.8711 24.048C69.8711 24.592 69.7351 25.12 69.4631 25.632C69.1991 26.144 68.8111 26.6 68.2991 27C67.7951 27.4 67.1751 27.72 66.4391 27.96C65.7031 28.208 64.8631 28.332 63.9191 28.332C62.9831 28.332 62.1711 28.24 61.4831 28.056C60.7951 27.88 60.2231 27.64 59.7671 27.336C59.3191 27.04 58.9831 26.696 58.7591 26.304C58.5351 25.912 58.4231 25.504 58.4231 25.08C58.4231 24.504 58.5991 24.02 58.9511 23.628C59.3031 23.236 59.7911 22.924 60.4151 22.692C60.1111 22.524 59.8671 22.3 59.6831 22.02C59.4991 21.74 59.4071 21.376 59.4071 20.928C59.4071 20.744 59.4391 20.556 59.5031 20.364C59.5671 20.164 59.6631 19.968 59.7911 19.776C59.9271 19.584 60.0951 19.404 60.2951 19.236C60.4951 19.06 60.7311 18.904 61.0031 18.768C60.3791 18.432 59.8871 17.984 59.5271 17.424C59.1751 16.864 58.9991 16.208 58.9991 15.456C58.9991 14.848 59.1191 14.3 59.3591 13.812C59.6071 13.316 59.9471 12.896 60.3791 12.552C60.8191 12.2 61.3351 11.932 61.9271 11.748C62.5271 11.564 63.1791 11.472 63.8831 11.472ZM67.1351 24.552C67.1351 24.312 67.0631 24.116 66.9191 23.964C66.7751 23.812 66.5791 23.696 66.3311 23.616C66.0831 23.528 65.7911 23.464 65.4551 23.424C65.1271 23.384 64.7751 23.356 64.3991 23.34C64.0311 23.316 63.6471 23.296 63.2471 23.28C62.8551 23.256 62.4751 23.22 62.1071 23.172C61.7711 23.356 61.4991 23.576 61.2911 23.832C61.0911 24.08 60.9911 24.368 60.9911 24.696C60.9911 24.912 61.0431 25.112 61.1471 25.296C61.2591 25.488 61.4311 25.652 61.6631 25.788C61.9031 25.924 62.2111 26.028 62.5871 26.1C62.9631 26.18 63.4231 26.22 63.9671 26.22C64.5191 26.22 64.9951 26.176 65.3951 26.088C65.7951 26.008 66.1231 25.892 66.3791 25.74C66.6431 25.596 66.8351 25.42 66.9551 25.212C67.0751 25.012 67.1351 24.792 67.1351 24.552ZM63.8831 17.544C64.2511 17.544 64.5711 17.496 64.8431 17.4C65.1151 17.296 65.3391 17.156 65.5151 16.98C65.6991 16.804 65.8351 16.592 65.9231 16.344C66.0191 16.096 66.0671 15.824 66.0671 15.528C66.0671 14.92 65.8831 14.44 65.5151 14.088C65.1551 13.728 64.6111 13.548 63.8831 13.548C63.1551 13.548 62.6071 13.728 62.2391 14.088C61.8791 14.44 61.6991 14.92 61.6991 15.528C61.6991 15.816 61.7431 16.084 61.8311 16.332C61.9271 16.58 62.0631 16.796 62.2391 16.98C62.4231 17.156 62.6511 17.296 62.9231 17.4C63.2031 17.496 63.5231 17.544 63.8831 17.544ZM81.6929 24H80.3609C80.0809 24 79.8609 23.96 79.7009 23.88C79.5409 23.792 79.4209 23.62 79.3409 23.364L79.0769 22.488C78.7649 22.768 78.4569 23.016 78.1529 23.232C77.8569 23.44 77.5489 23.616 77.2289 23.76C76.9089 23.904 76.5689 24.012 76.2089 24.084C75.8489 24.156 75.4489 24.192 75.0089 24.192C74.4889 24.192 74.0089 24.124 73.5689 23.988C73.1289 23.844 72.7489 23.632 72.4289 23.352C72.1169 23.072 71.8729 22.724 71.6969 22.308C71.5209 21.892 71.4329 21.408 71.4329 20.856C71.4329 20.392 71.5529 19.936 71.7929 19.488C72.0409 19.032 72.4489 18.624 73.0169 18.264C73.5849 17.896 74.3409 17.592 75.2849 17.352C76.2289 17.112 77.4009 16.976 78.8009 16.944V16.224C78.8009 15.4 78.6249 14.792 78.2729 14.4C77.9289 14 77.4249 13.8 76.7609 13.8C76.2809 13.8 75.8809 13.856 75.5609 13.968C75.2409 14.08 74.9609 14.208 74.7209 14.352C74.4889 14.488 74.2729 14.612 74.0729 14.724C73.8729 14.836 73.6529 14.892 73.4129 14.892C73.2129 14.892 73.0409 14.84 72.8969 14.736C72.7529 14.632 72.6369 14.504 72.5489 14.352L72.0089 13.404C73.4249 12.108 75.1329 11.46 77.1329 11.46C77.8529 11.46 78.4929 11.58 79.0529 11.82C79.6209 12.052 80.1009 12.38 80.4929 12.804C80.8849 13.22 81.1809 13.72 81.3809 14.304C81.5889 14.888 81.6929 15.528 81.6929 16.224V24ZM75.9329 22.152C76.2369 22.152 76.5169 22.124 76.7729 22.068C77.0289 22.012 77.2689 21.928 77.4929 21.816C77.7249 21.704 77.9449 21.568 78.1529 21.408C78.3689 21.24 78.5849 21.044 78.8009 20.82V18.744C77.9369 18.784 77.2129 18.86 76.6289 18.972C76.0529 19.076 75.5889 19.212 75.2369 19.38C74.8849 19.548 74.6329 19.744 74.4809 19.968C74.3369 20.192 74.2649 20.436 74.2649 20.7C74.2649 21.22 74.4169 21.592 74.7209 21.816C75.0329 22.04 75.4369 22.152 75.9329 22.152ZM84.6074 24V11.688H86.3474C86.6514 11.688 86.8634 11.744 86.9834 11.856C87.1034 11.968 87.1834 12.16 87.2234 12.432L87.4034 13.92C87.8434 13.16 88.3594 12.56 88.9514 12.12C89.5434 11.68 90.2074 11.46 90.9434 11.46C91.5514 11.46 92.0554 11.6 92.4554 11.88L92.0714 14.1C92.0474 14.244 91.9954 14.348 91.9154 14.412C91.8354 14.468 91.7274 14.496 91.5914 14.496C91.4714 14.496 91.3074 14.468 91.0994 14.412C90.8914 14.356 90.6154 14.328 90.2714 14.328C89.6554 14.328 89.1274 14.5 88.6874 14.844C88.2474 15.18 87.8754 15.676 87.5714 16.332V24H84.6074ZM109.824 24H107.328C107.048 24 106.816 23.932 106.632 23.796C106.456 23.652 106.328 23.476 106.248 23.268L104.952 19.728H97.7643L96.4683 23.268C96.4043 23.452 96.2763 23.62 96.0843 23.772C95.9003 23.924 95.6723 24 95.4003 24H92.8923L99.7083 6.648H103.008L109.824 24ZM98.5923 17.448H104.124L102.012 11.676C101.916 11.42 101.808 11.12 101.688 10.776C101.576 10.424 101.464 10.044 101.352 9.636C101.24 10.044 101.128 10.424 101.016 10.776C100.912 11.128 100.808 11.436 100.704 11.7L98.5923 17.448ZM120.095 14.292C120.007 14.404 119.919 14.492 119.831 14.556C119.751 14.62 119.631 14.652 119.471 14.652C119.319 14.652 119.171 14.608 119.027 14.52C118.883 14.424 118.711 14.32 118.511 14.208C118.311 14.088 118.071 13.984 117.791 13.896C117.519 13.8 117.179 13.752 116.771 13.752C116.251 13.752 115.795 13.848 115.403 14.04C115.011 14.224 114.683 14.492 114.419 14.844C114.163 15.196 113.971 15.624 113.843 16.128C113.715 16.624 113.651 17.188 113.651 17.82C113.651 18.476 113.719 19.06 113.855 19.572C113.999 20.084 114.203 20.516 114.467 20.868C114.731 21.212 115.051 21.476 115.427 21.66C115.803 21.836 116.227 21.924 116.699 21.924C117.171 21.924 117.551 21.868 117.839 21.756C118.135 21.636 118.383 21.508 118.583 21.372C118.783 21.228 118.955 21.1 119.099 20.988C119.251 20.868 119.419 20.808 119.603 20.808C119.843 20.808 120.023 20.9 120.143 21.084L120.995 22.164C120.667 22.548 120.311 22.872 119.927 23.136C119.543 23.392 119.143 23.6 118.727 23.76C118.319 23.912 117.895 24.02 117.455 24.084C117.015 24.148 116.579 24.18 116.147 24.18C115.387 24.18 114.671 24.04 113.999 23.76C113.327 23.472 112.739 23.056 112.235 22.512C111.739 21.968 111.343 21.304 111.047 20.52C110.759 19.728 110.615 18.828 110.615 17.82C110.615 16.916 110.743 16.08 110.999 15.312C111.263 14.536 111.647 13.868 112.151 13.308C112.655 12.74 113.279 12.296 114.023 11.976C114.767 11.656 115.623 11.496 116.591 11.496C117.511 11.496 118.315 11.644 119.003 11.94C119.699 12.236 120.323 12.66 120.875 13.212L120.095 14.292ZM131.533 14.292C131.445 14.404 131.357 14.492 131.269 14.556C131.189 14.62 131.069 14.652 130.909 14.652C130.757 14.652 130.609 14.608 130.465 14.52C130.321 14.424 130.149 14.32 129.949 14.208C129.749 14.088 129.509 13.984 129.229 13.896C128.957 13.8 128.617 13.752 128.209 13.752C127.689 13.752 127.233 13.848 126.841 14.04C126.449 14.224 126.121 14.492 125.857 14.844C125.601 15.196 125.409 15.624 125.281 16.128C125.153 16.624 125.089 17.188 125.089 17.82C125.089 18.476 125.157 19.06 125.293 19.572C125.437 20.084 125.641 20.516 125.905 20.868C126.169 21.212 126.489 21.476 126.865 21.66C127.241 21.836 127.665 21.924 128.137 21.924C128.609 21.924 128.989 21.868 129.277 21.756C129.573 21.636 129.821 21.508 130.021 21.372C130.221 21.228 130.393 21.1 130.537 20.988C130.689 20.868 130.857 20.808 131.041 20.808C131.281 20.808 131.461 20.9 131.581 21.084L132.433 22.164C132.105 22.548 131.749 22.872 131.365 23.136C130.981 23.392 130.581 23.6 130.165 23.76C129.757 23.912 129.333 24.02 128.893 24.084C128.453 24.148 128.017 24.18 127.585 24.18C126.825 24.18 126.109 24.04 125.437 23.76C124.765 23.472 124.177 23.056 123.673 22.512C123.177 21.968 122.781 21.304 122.485 20.52C122.197 19.728 122.053 18.828 122.053 17.82C122.053 16.916 122.181 16.08 122.437 15.312C122.701 14.536 123.085 13.868 123.589 13.308C124.093 12.74 124.717 12.296 125.461 11.976C126.205 11.656 127.061 11.496 128.029 11.496C128.949 11.496 129.753 11.644 130.441 11.94C131.137 12.236 131.761 12.66 132.313 13.212L131.533 14.292ZM139.406 11.496C140.182 11.496 140.894 11.62 141.542 11.868C142.198 12.116 142.762 12.48 143.234 12.96C143.706 13.432 144.074 14.016 144.338 14.712C144.602 15.4 144.734 16.188 144.734 17.076C144.734 17.3 144.722 17.488 144.698 17.64C144.682 17.784 144.646 17.9 144.59 17.988C144.542 18.068 144.474 18.128 144.386 18.168C144.298 18.2 144.186 18.216 144.05 18.216H136.442C136.53 19.48 136.87 20.408 137.462 21C138.054 21.592 138.838 21.888 139.814 21.888C140.294 21.888 140.706 21.832 141.05 21.72C141.402 21.608 141.706 21.484 141.962 21.348C142.226 21.212 142.454 21.088 142.646 20.976C142.846 20.864 143.038 20.808 143.222 20.808C143.342 20.808 143.446 20.832 143.534 20.88C143.622 20.928 143.698 20.996 143.762 21.084L144.626 22.164C144.298 22.548 143.93 22.872 143.522 23.136C143.114 23.392 142.686 23.6 142.238 23.76C141.798 23.912 141.346 24.02 140.882 24.084C140.426 24.148 139.982 24.18 139.55 24.18C138.694 24.18 137.898 24.04 137.162 23.76C136.426 23.472 135.786 23.052 135.242 22.5C134.698 21.94 134.27 21.252 133.958 20.436C133.646 19.612 133.49 18.66 133.49 17.58C133.49 16.74 133.626 15.952 133.898 15.216C134.17 14.472 134.558 13.828 135.062 13.284C135.574 12.732 136.194 12.296 136.922 11.976C137.658 11.656 138.486 11.496 139.406 11.496ZM139.466 13.62C138.602 13.62 137.926 13.864 137.438 14.352C136.95 14.84 136.638 15.532 136.502 16.428H142.07C142.07 16.044 142.018 15.684 141.914 15.348C141.81 15.004 141.65 14.704 141.434 14.448C141.218 14.192 140.946 13.992 140.618 13.848C140.29 13.696 139.906 13.62 139.466 13.62ZM154.447 14.088C154.367 14.216 154.283 14.308 154.195 14.364C154.107 14.412 153.995 14.436 153.859 14.436C153.715 14.436 153.559 14.396 153.391 14.316C153.231 14.236 153.043 14.148 152.827 14.052C152.611 13.948 152.363 13.856 152.083 13.776C151.811 13.696 151.487 13.656 151.111 13.656C150.527 13.656 150.067 13.78 149.731 14.028C149.395 14.276 149.227 14.6 149.227 15C149.227 15.264 149.311 15.488 149.479 15.672C149.655 15.848 149.883 16.004 150.163 16.14C150.451 16.276 150.775 16.4 151.135 16.512C151.495 16.616 151.863 16.732 152.239 16.86C152.615 16.988 152.983 17.136 153.343 17.304C153.703 17.464 154.023 17.672 154.303 17.928C154.591 18.176 154.819 18.476 154.987 18.828C155.163 19.18 155.251 19.604 155.251 20.1C155.251 20.692 155.143 21.24 154.927 21.744C154.711 22.24 154.395 22.672 153.979 23.04C153.563 23.4 153.047 23.684 152.431 23.892C151.823 24.092 151.123 24.192 150.331 24.192C149.907 24.192 149.491 24.152 149.083 24.072C148.683 24 148.295 23.896 147.919 23.76C147.551 23.624 147.207 23.464 146.887 23.28C146.575 23.096 146.299 22.896 146.059 22.68L146.743 21.552C146.831 21.416 146.935 21.312 147.055 21.24C147.175 21.168 147.327 21.132 147.511 21.132C147.695 21.132 147.867 21.184 148.027 21.288C148.195 21.392 148.387 21.504 148.603 21.624C148.819 21.744 149.071 21.856 149.359 21.96C149.655 22.064 150.027 22.116 150.475 22.116C150.827 22.116 151.127 22.076 151.375 21.996C151.631 21.908 151.839 21.796 151.999 21.66C152.167 21.524 152.287 21.368 152.359 21.192C152.439 21.008 152.479 20.82 152.479 20.628C152.479 20.34 152.391 20.104 152.215 19.92C152.047 19.736 151.819 19.576 151.531 19.44C151.251 19.304 150.927 19.184 150.559 19.08C150.199 18.968 149.827 18.848 149.443 18.72C149.067 18.592 148.695 18.444 148.327 18.276C147.967 18.1 147.643 17.88 147.355 17.616C147.075 17.352 146.847 17.028 146.671 16.644C146.503 16.26 146.419 15.796 146.419 15.252C146.419 14.748 146.519 14.268 146.719 13.812C146.919 13.356 147.211 12.96 147.595 12.624C147.987 12.28 148.471 12.008 149.047 11.808C149.631 11.6 150.303 11.496 151.063 11.496C151.911 11.496 152.683 11.636 153.379 11.916C154.075 12.196 154.655 12.564 155.119 13.02L154.447 14.088ZM160.771 11.688V24H157.807V11.688H160.771ZM161.215 8.1C161.215 8.356 161.163 8.596 161.059 8.82C160.955 9.044 160.815 9.24 160.639 9.408C160.471 9.576 160.271 9.712 160.039 9.816C159.807 9.912 159.559 9.96 159.295 9.96C159.039 9.96 158.795 9.912 158.563 9.816C158.339 9.712 158.143 9.576 157.975 9.408C157.807 9.24 157.671 9.044 157.567 8.82C157.471 8.596 157.423 8.356 157.423 8.1C157.423 7.836 157.471 7.588 157.567 7.356C157.671 7.124 157.807 6.924 157.975 6.756C158.143 6.588 158.339 6.456 158.563 6.36C158.795 6.256 159.039 6.204 159.295 6.204C159.559 6.204 159.807 6.256 160.039 6.36C160.271 6.456 160.471 6.588 160.639 6.756C160.815 6.924 160.955 7.124 161.059 7.356C161.163 7.588 161.215 7.836 161.215 8.1ZM164.167 24V6.168H167.131V13.2C167.619 12.68 168.171 12.268 168.787 11.964C169.403 11.652 170.123 11.496 170.947 11.496C171.619 11.496 172.231 11.636 172.783 11.916C173.343 12.188 173.823 12.588 174.223 13.116C174.631 13.644 174.943 14.296 175.159 15.072C175.383 15.848 175.495 16.74 175.495 17.748C175.495 18.668 175.371 19.52 175.123 20.304C174.875 21.088 174.519 21.768 174.055 22.344C173.599 22.92 173.043 23.372 172.387 23.7C171.739 24.02 171.011 24.18 170.203 24.18C169.827 24.18 169.483 24.14 169.171 24.06C168.859 23.988 168.575 23.884 168.319 23.748C168.063 23.612 167.823 23.448 167.599 23.256C167.383 23.056 167.175 22.836 166.975 22.596L166.843 23.424C166.795 23.632 166.711 23.78 166.591 23.868C166.479 23.956 166.323 24 166.123 24H164.167ZM169.927 13.8C169.311 13.8 168.783 13.932 168.343 14.196C167.911 14.452 167.507 14.816 167.131 15.288V20.808C167.467 21.224 167.831 21.516 168.223 21.684C168.623 21.844 169.055 21.924 169.519 21.924C169.967 21.924 170.371 21.84 170.731 21.672C171.091 21.504 171.395 21.248 171.643 20.904C171.899 20.56 172.095 20.128 172.231 19.608C172.367 19.08 172.435 18.46 172.435 17.748C172.435 17.028 172.375 16.42 172.255 15.924C172.143 15.42 171.979 15.012 171.763 14.7C171.547 14.388 171.283 14.16 170.971 14.016C170.667 13.872 170.319 13.8 169.927 13.8ZM180.974 6.168V24H178.01V6.168H180.974ZM189.422 11.496C190.198 11.496 190.91 11.62 191.558 11.868C192.214 12.116 192.778 12.48 193.25 12.96C193.722 13.432 194.09 14.016 194.354 14.712C194.618 15.4 194.75 16.188 194.75 17.076C194.75 17.3 194.738 17.488 194.714 17.64C194.698 17.784 194.662 17.9 194.606 17.988C194.558 18.068 194.49 18.128 194.402 18.168C194.314 18.2 194.202 18.216 194.066 18.216H186.458C186.546 19.48 186.886 20.408 187.478 21C188.07 21.592 188.854 21.888 189.83 21.888C190.31 21.888 190.722 21.832 191.066 21.72C191.418 21.608 191.722 21.484 191.978 21.348C192.242 21.212 192.47 21.088 192.662 20.976C192.862 20.864 193.054 20.808 193.238 20.808C193.358 20.808 193.462 20.832 193.55 20.88C193.638 20.928 193.714 20.996 193.778 21.084L194.642 22.164C194.314 22.548 193.946 22.872 193.538 23.136C193.13 23.392 192.702 23.6 192.254 23.76C191.814 23.912 191.362 24.02 190.898 24.084C190.442 24.148 189.998 24.18 189.566 24.18C188.71 24.18 187.914 24.04 187.178 23.76C186.442 23.472 185.802 23.052 185.258 22.5C184.714 21.94 184.286 21.252 183.974 20.436C183.662 19.612 183.506 18.66 183.506 17.58C183.506 16.74 183.642 15.952 183.914 15.216C184.186 14.472 184.574 13.828 185.078 13.284C185.59 12.732 186.21 12.296 186.938 11.976C187.674 11.656 188.502 11.496 189.422 11.496ZM189.482 13.62C188.618 13.62 187.942 13.864 187.454 14.352C186.966 14.84 186.654 15.532 186.518 16.428H192.086C192.086 16.044 192.034 15.684 191.93 15.348C191.826 15.004 191.666 14.704 191.45 14.448C191.234 14.192 190.962 13.992 190.634 13.848C190.306 13.696 189.922 13.62 189.482 13.62Z" fill="white"/>
<path d="M1.0869 23.9054L11.428 3.37357C11.679 2.87548 12.321 2.87548 12.572 3.37357L22.9131 23.9054C23.2152 24.5052 22.6775 25.1972 22.1033 24.9477L12.2378 20.6631C12.0849 20.5965 11.9151 20.5965 11.7622 20.6631L1.89668 24.9477C1.32246 25.1972 0.784846 24.5052 1.0869 23.9054Z" stroke="white" stroke-width="1.5" stroke-linecap="round" stroke-linejoin="round"/>
</svg>
